<svg width="20" height="20" viewBox="0 0 20 20" fill="none" xmlns="http://www.w3.org/2000/svg">
<path d="M13.805 18.3325H13.8284C14.2683 18.3325 14.6842 18.1591 14.9992 17.8441L17.2592 15.5841C17.3366 15.5068 17.3981 15.415 17.44 15.3139C17.4819 15.2128 17.5035 15.1044 17.5035 14.995C17.5035 14.8855 17.4819 14.7771 17.44 14.676C17.3981 14.575 17.3366 14.4831 17.2592 14.4058L13.9258 11.0725C13.8485 10.995 13.7567 10.9336 13.6556 10.8916C13.5545 10.8497 13.4461 10.8281 13.3367 10.8281C13.2272 10.8281 13.1189 10.8497 13.0178 10.8916C12.9167 10.9336 12.8248 10.995 12.7475 11.0725L11.4192 12.4008C10.8034 12.2175 9.65418 11.8008 8.92585 11.0725C8.19752 10.3441 7.78085 9.19496 7.59752 8.57913L8.92585 7.25079C9.00331 7.17347 9.06475 7.08163 9.10668 6.98054C9.1486 6.87944 9.17018 6.77107 9.17018 6.66163C9.17018 6.55218 9.1486 6.44381 9.10668 6.34272C9.06475 6.24162 9.00331 6.14978 8.92585 6.07246L5.59252 2.73913C5.4332 2.58875 5.22242 2.50499 5.00335 2.50499C4.78428 2.50499 4.5735 2.58875 4.41418 2.73913L2.15502 4.99913C1.83835 5.31579 1.66002 5.75079 1.66668 6.19496C1.68585 7.38163 2.00002 11.5033 5.24835 14.7516C8.49668 18 12.6184 18.3133 13.805 18.3325ZM5.00418 4.50663L7.15918 6.66163L6.08168 7.73913C5.98363 7.83691 5.9116 7.95767 5.87215 8.09042C5.83271 8.22316 5.82711 8.36366 5.85585 8.49913C5.87585 8.59496 6.36502 10.8675 7.74835 12.2508C9.13168 13.6341 11.4042 14.1233 11.5 14.1433C11.6355 14.1722 11.776 14.1667 11.9088 14.1272C12.0416 14.0878 12.1623 14.0156 12.26 13.9175L13.3375 12.84L15.4925 14.995L13.8208 16.6658C12.7808 16.6483 9.22252 16.3691 6.42668 13.5725C3.62168 10.7675 3.35002 7.19663 3.33335 6.17746L5.00418 4.50663ZM16.6659 9.16579H18.3325C18.3325 4.89079 15.105 1.66663 10.8242 1.66663V3.33329C14.2092 3.33329 16.6659 5.78579 16.6659 9.16579Z" fill="white" stroke="#7C91C8" stroke-width="0.5"/>
<path d="M10.8325 6.66667C12.585 6.66667 13.3325 7.41417 13.3325 9.16667H14.9992C14.9992 6.47917 13.52 5 10.8325 5V6.66667Z" fill="white" stroke="#7C91C8" stroke-width="0.5"/>
</svg>
